<svg width="32" height="41" viewBox="0 0 32 41" fill="none" xmlns="http://www.w3.org/2000/svg">
<path d="M16.3139 1.00345C-0.456076 1.30345 1.03392 19.7734 1.03392 19.7734C1.03392 19.7734 0.733921 28.4335 16.3339 40.3735L29.6039 28.0335L25.6739 24.1035L16.6739 32.2835C16.4536 32.4866 16.1694 32.6068 15.8701 32.6232C15.5708 32.6396 15.2752 32.5513 15.0339 32.3735C11.0105 29.3672 8.23403 24.9854 7.23392 20.0634H31.6439C31.6439 20.0634 33.0839 0.703451 16.3139 1.00345ZM7.50392 14.7435C7.50392 14.7435 7.85392 6.13345 16.3139 6.08345C24.7739 6.03345 25.1239 14.7435 25.1239 14.7435H7.50392Z" fill="white" stroke="white" stroke-width="0.25" stroke-miterlimit="10"/>
</svg>
